<svg xmlns="http://www.w3.org/2000/svg" viewBox="0 0 900 560" role="img" aria-hidden="true">
<defs>
  <filter id="pencil" x="-8%" y="-8%" width="116%" height="116%">
    <feTurbulence type="fractalNoise" baseFrequency="0.018" numOctaves="2" seed="8" result="noise"/>
    <feDisplacementMap in="SourceGraphic" in2="noise" scale="1.15" xChannelSelector="R" yChannelSelector="G"/>
  </filter>
  <style>
    .line{fill:none;stroke:#263241;stroke-width:4.2;stroke-linecap:round;stroke-linejoin:round;filter:url(#pencil);opacity:.76}
    .thin{fill:none;stroke:#263241;stroke-width:2.2;stroke-linecap:round;stroke-linejoin:round;filter:url(#pencil);opacity:.55}
    .dash{fill:none;stroke:#263241;stroke-width:2.2;stroke-linecap:round;stroke-linejoin:round;stroke-dasharray:11 12;filter:url(#pencil);opacity:.45}
    .mark{fill:#263241;opacity:.78;filter:url(#pencil)}
    .accent{fill:#8b2f2f;opacity:.8;filter:url(#pencil)}
  </style>
</defs>

  <path class="line" d="M130 390 C300 300,590 300,770 390"/><path class="thin" d="M150 315 C310 225,570 225,750 315"/><path class="thin" d="M170 245 C320 165,555 165,730 245"/>
  <path class="dash" d="M250 190 L250 430 M420 150 L420 450 M600 190 L600 430"/>
  <path class="thin" d="M250 188 L214 145 M250 188 L288 146 M420 148 L382 106 M420 148 L458 106 M600 188 L562 146 M600 188 L638 146"/>
  <circle class="mark" cx="250" cy="315" r="6"/><circle class="mark" cx="420" cy="315" r="6"/><circle class="mark" cx="600" cy="315" r="6"/>

</svg>
