<svg xmlns="http://www.w3.org/2000/svg" viewBox="0 0 900 560" role="img" aria-hidden="true">
<defs>
  <filter id="rough" x="-10%" y="-10%" width="120%" height="120%">
    <feTurbulence type="fractalNoise" baseFrequency="0.035" numOctaves="2" seed="17" result="noise"/>
    <feDisplacementMap in="SourceGraphic" in2="noise" scale="1.35" xChannelSelector="R" yChannelSelector="G"/>
  </filter>
  <style>
    .p{fill:none;stroke:#20242b;stroke-width:4.1;stroke-linecap:round;stroke-linejoin:round;filter:url(#rough);opacity:.74}
    .q{fill:none;stroke:#20242b;stroke-width:2.2;stroke-linecap:round;stroke-linejoin:round;filter:url(#rough);opacity:.48}
    .r{fill:none;stroke:#20242b;stroke-width:1.45;stroke-linecap:round;stroke-linejoin:round;filter:url(#rough);opacity:.30}
    .d{fill:none;stroke:#20242b;stroke-width:2.3;stroke-linecap:round;stroke-linejoin:round;stroke-dasharray:10 12;filter:url(#rough);opacity:.42}
    .m{fill:#20242b;filter:url(#rough);opacity:.72}
    .a{fill:#8c2f2f;stroke:#8c2f2f;stroke-width:1.8;filter:url(#rough);opacity:.8}
    .wash{fill:#20242b;opacity:.045;filter:url(#rough)}
    .txt{font-family:EB Garamond, Georgia, serif;font-size:35px;fill:#20242b;opacity:.55;filter:url(#rough)}
    .small{font-family:EB Garamond, Georgia, serif;font-size:25px;fill:#20242b;opacity:.50;filter:url(#rough)}
  </style>
</defs>

  <path class="p" d="M128 390 C300 300 590 300 772 390"/>
  <path class="q" d="M150 315 C310 225 570 225 750 315 M170 245 C320 165 555 165 730 245"/>
  <path class="d" d="M250 188 L250 430 M420 150 L420 450 M600 188 L600 430"/>
  <path class="q" d="M250 188 L214 145 M250 188 L288 146 M420 150 L382 108 M420 150 L458 108 M600 188 L562 146 M600 188 L638 146"/>
  <path class="q" d="M220 458 C320 515 555 515 690 458"/>
  <circle class="a" cx="250" cy="315" r="6"/><circle class="a" cx="420" cy="315" r="6"/><circle class="a" cx="600" cy="315" r="6"/>
  <text class="small" x="180" y="105">every vector bundle from a branched cover</text>

</svg>
