<svg xmlns="http://www.w3.org/2000/svg" viewBox="0 0 900 560" role="img" aria-hidden="true">
<defs>
  <filter id="pencil" x="-8%" y="-8%" width="116%" height="116%">
    <feTurbulence type="fractalNoise" baseFrequency="0.018" numOctaves="2" seed="8" result="noise"/>
    <feDisplacementMap in="SourceGraphic" in2="noise" scale="1.15" xChannelSelector="R" yChannelSelector="G"/>
  </filter>
  <style>
    .line{fill:none;stroke:#263241;stroke-width:4.2;stroke-linecap:round;stroke-linejoin:round;filter:url(#pencil);opacity:.76}
    .thin{fill:none;stroke:#263241;stroke-width:2.2;stroke-linecap:round;stroke-linejoin:round;filter:url(#pencil);opacity:.55}
    .dash{fill:none;stroke:#263241;stroke-width:2.2;stroke-linecap:round;stroke-linejoin:round;stroke-dasharray:11 12;filter:url(#pencil);opacity:.45}
    .mark{fill:#263241;opacity:.78;filter:url(#pencil)}
    .accent{fill:#8b2f2f;opacity:.8;filter:url(#pencil)}
  </style>
</defs>

  <path class="thin" d="M150 170 L300 170 L300 250 L450 250 L450 330 L600 330 L600 410 L750 410"/>
  <path class="line" d="M150 250 L300 250 M300 330 L450 330 M450 410 L600 410"/>
  <path class="dash" d="M300 170 L450 250 M450 250 L600 330 M600 330 L750 410"/>
  <circle class="mark" cx="300" cy="250" r="7"/><circle class="mark" cx="450" cy="330" r="7"/><circle class="accent" cx="600" cy="410" r="8"/>
  <path class="thin" d="M170 470 C315 500,520 500,730 468"/>

</svg>
