<svg xmlns="http://www.w3.org/2000/svg" viewBox="0 0 900 560" role="img" aria-hidden="true">
<defs>
  <filter id="rough" x="-10%" y="-10%" width="120%" height="120%">
    <feTurbulence type="fractalNoise" baseFrequency="0.035" numOctaves="2" seed="17" result="noise"/>
    <feDisplacementMap in="SourceGraphic" in2="noise" scale="1.35" xChannelSelector="R" yChannelSelector="G"/>
  </filter>
  <style>
    .p{fill:none;stroke:#20242b;stroke-width:4.1;stroke-linecap:round;stroke-linejoin:round;filter:url(#rough);opacity:.74}
    .q{fill:none;stroke:#20242b;stroke-width:2.2;stroke-linecap:round;stroke-linejoin:round;filter:url(#rough);opacity:.48}
    .r{fill:none;stroke:#20242b;stroke-width:1.45;stroke-linecap:round;stroke-linejoin:round;filter:url(#rough);opacity:.30}
    .d{fill:none;stroke:#20242b;stroke-width:2.3;stroke-linecap:round;stroke-linejoin:round;stroke-dasharray:10 12;filter:url(#rough);opacity:.42}
    .m{fill:#20242b;filter:url(#rough);opacity:.72}
    .a{fill:#8c2f2f;stroke:#8c2f2f;stroke-width:1.8;filter:url(#rough);opacity:.8}
    .wash{fill:#20242b;opacity:.045;filter:url(#rough)}
    .txt{font-family:EB Garamond, Georgia, serif;font-size:35px;fill:#20242b;opacity:.55;filter:url(#rough)}
    .small{font-family:EB Garamond, Georgia, serif;font-size:25px;fill:#20242b;opacity:.50;filter:url(#rough)}
  </style>
</defs>

  <path class="p" d="M110 238 C210 318 305 318 405 238"/><path class="p" d="M110 328 C210 222 305 222 405 328"/>
  <path class="q" d="M154 190 C230 132 320 135 390 196 M148 374 C232 430 318 425 390 368"/>
  <text class="txt" x="168" y="275">fᵃ</text><text class="txt" x="306" y="275">gᵇ</text>
  <path class="d" d="M425 282 C510 205 595 205 675 282"/><path class="d" d="M425 282 C510 360 595 360 675 282"/>
  <path class="p" d="M690 170 L805 238 L770 405 L625 350 L645 218 Z"/>
  <path class="q" d="M648 250 L792 302 M635 318 L775 362 M703 190 L662 372"/>
  <text class="small" x="654" y="460">first transvectant graph</text>

</svg>
