<svg xmlns="http://www.w3.org/2000/svg" viewBox="0 0 900 560" role="img" aria-hidden="true">
<defs>
  <filter id="pencil" x="-8%" y="-8%" width="116%" height="116%">
    <feTurbulence type="fractalNoise" baseFrequency="0.018" numOctaves="2" seed="8" result="noise"/>
    <feDisplacementMap in="SourceGraphic" in2="noise" scale="1.15" xChannelSelector="R" yChannelSelector="G"/>
  </filter>
  <style>
    .line{fill:none;stroke:#263241;stroke-width:4.2;stroke-linecap:round;stroke-linejoin:round;filter:url(#pencil);opacity:.76}
    .thin{fill:none;stroke:#263241;stroke-width:2.2;stroke-linecap:round;stroke-linejoin:round;filter:url(#pencil);opacity:.55}
    .dash{fill:none;stroke:#263241;stroke-width:2.2;stroke-linecap:round;stroke-linejoin:round;stroke-dasharray:11 12;filter:url(#pencil);opacity:.45}
    .mark{fill:#263241;opacity:.78;filter:url(#pencil)}
    .accent{fill:#8b2f2f;opacity:.8;filter:url(#pencil)}
  </style>
</defs>

  <path class="line" d="M110 320 C210 220,300 220,402 320"/><path class="line" d="M110 238 C215 320,300 320,402 238"/>
  <path class="thin" d="M155 360 C230 420,310 420,380 360 M140 198 C225 135,310 135,390 198"/>
  <path class="dash" d="M435 278 C500 230,565 230,630 278"/><path class="dash" d="M435 278 C500 328,565 328,630 278"/>
  <path class="line" d="M665 188 L805 230 L765 392 L620 350 Z"/><path class="thin" d="M650 252 L790 292 M638 315 L778 356 M708 205 L665 370"/>
  <path class="thin" d="M406 278 C480 160,585 155,660 220"/><path class="thin" d="M406 278 C485 410,585 410,660 338"/>

</svg>
