<svg xmlns="http://www.w3.org/2000/svg" viewBox="0 0 900 560" role="img" aria-hidden="true">
<defs>
  <filter id="rough" x="-10%" y="-10%" width="120%" height="120%">
    <feTurbulence type="fractalNoise" baseFrequency="0.035" numOctaves="2" seed="17" result="noise"/>
    <feDisplacementMap in="SourceGraphic" in2="noise" scale="1.35" xChannelSelector="R" yChannelSelector="G"/>
  </filter>
  <style>
    .p{fill:none;stroke:#20242b;stroke-width:4.1;stroke-linecap:round;stroke-linejoin:round;filter:url(#rough);opacity:.74}
    .q{fill:none;stroke:#20242b;stroke-width:2.2;stroke-linecap:round;stroke-linejoin:round;filter:url(#rough);opacity:.48}
    .r{fill:none;stroke:#20242b;stroke-width:1.45;stroke-linecap:round;stroke-linejoin:round;filter:url(#rough);opacity:.30}
    .d{fill:none;stroke:#20242b;stroke-width:2.3;stroke-linecap:round;stroke-linejoin:round;stroke-dasharray:10 12;filter:url(#rough);opacity:.42}
    .m{fill:#20242b;filter:url(#rough);opacity:.72}
    .a{fill:#8c2f2f;stroke:#8c2f2f;stroke-width:1.8;filter:url(#rough);opacity:.8}
    .wash{fill:#20242b;opacity:.045;filter:url(#rough)}
    .txt{font-family:EB Garamond, Georgia, serif;font-size:35px;fill:#20242b;opacity:.55;filter:url(#rough)}
    .small{font-family:EB Garamond, Georgia, serif;font-size:25px;fill:#20242b;opacity:.50;filter:url(#rough)}
  </style>
</defs>

  <path class="p" d="M120 355 C230 118 380 195 442 315 C486 405 650 454 778 235"/>
  <path class="q" d="M135 238 C280 418 405 95 520 255 C610 382 703 330 772 176"/>
  <path class="d" d="M245 108 C270 205 270 380 230 474 M620 105 C588 215 594 390 650 464"/>
  <circle class="a" cx="442" cy="315" r="10"/>
  <path class="q" d="M338 154 L456 92 L610 156 M456 92 L456 236 M338 154 L456 236 L610 156"/>
  <text class="small" x="178" y="502">plane quartic orbit degeneration</text>

</svg>
