<svg xmlns="http://www.w3.org/2000/svg" viewBox="0 0 900 560" role="img" aria-hidden="true">
<defs>
  <filter id="pencil" x="-8%" y="-8%" width="116%" height="116%">
    <feTurbulence type="fractalNoise" baseFrequency="0.018" numOctaves="2" seed="8" result="noise"/>
    <feDisplacementMap in="SourceGraphic" in2="noise" scale="1.15" xChannelSelector="R" yChannelSelector="G"/>
  </filter>
  <style>
    .line{fill:none;stroke:#263241;stroke-width:4.2;stroke-linecap:round;stroke-linejoin:round;filter:url(#pencil);opacity:.76}
    .thin{fill:none;stroke:#263241;stroke-width:2.2;stroke-linecap:round;stroke-linejoin:round;filter:url(#pencil);opacity:.55}
    .dash{fill:none;stroke:#263241;stroke-width:2.2;stroke-linecap:round;stroke-linejoin:round;stroke-dasharray:11 12;filter:url(#pencil);opacity:.45}
    .mark{fill:#263241;opacity:.78;filter:url(#pencil)}
    .accent{fill:#8b2f2f;opacity:.8;filter:url(#pencil)}
  </style>
</defs>

  <path class="line" d="M130 350 C300 250,580 250,770 350"/><path class="thin" d="M130 290 C300 190,580 190,770 290"/><path class="thin" d="M130 410 C300 310,580 310,770 410"/>
  <path class="dash" d="M210 210 C230 275,230 360,210 440 M345 178 C370 262,370 368,345 462 M510 178 C535 262,535 368,510 462 M665 210 C690 285,690 365,665 440"/>
  <circle class="accent" cx="210" cy="350" r="8"/><circle class="accent" cx="345" cy="350" r="8"/><circle class="accent" cx="510" cy="350" r="8"/><circle class="accent" cx="665" cy="350" r="8"/>

</svg>
