<svg xmlns="http://www.w3.org/2000/svg" viewBox="0 0 900 560" role="img" aria-hidden="true">
<defs>
  <filter id="rough" x="-10%" y="-10%" width="120%" height="120%">
    <feTurbulence type="fractalNoise" baseFrequency="0.035" numOctaves="2" seed="17" result="noise"/>
    <feDisplacementMap in="SourceGraphic" in2="noise" scale="1.35" xChannelSelector="R" yChannelSelector="G"/>
  </filter>
  <style>
    .p{fill:none;stroke:#20242b;stroke-width:4.1;stroke-linecap:round;stroke-linejoin:round;filter:url(#rough);opacity:.74}
    .q{fill:none;stroke:#20242b;stroke-width:2.2;stroke-linecap:round;stroke-linejoin:round;filter:url(#rough);opacity:.48}
    .r{fill:none;stroke:#20242b;stroke-width:1.45;stroke-linecap:round;stroke-linejoin:round;filter:url(#rough);opacity:.30}
    .d{fill:none;stroke:#20242b;stroke-width:2.3;stroke-linecap:round;stroke-linejoin:round;stroke-dasharray:10 12;filter:url(#rough);opacity:.42}
    .m{fill:#20242b;filter:url(#rough);opacity:.72}
    .a{fill:#8c2f2f;stroke:#8c2f2f;stroke-width:1.8;filter:url(#rough);opacity:.8}
    .wash{fill:#20242b;opacity:.045;filter:url(#rough)}
    .txt{font-family:EB Garamond, Georgia, serif;font-size:35px;fill:#20242b;opacity:.55;filter:url(#rough)}
    .small{font-family:EB Garamond, Georgia, serif;font-size:25px;fill:#20242b;opacity:.50;filter:url(#rough)}
  </style>
</defs>

  <path class="p" d="M130 378 C300 270 590 270 770 378"/>
  <path class="q" d="M170 280 C320 182 555 182 730 280"/>
  <path class="q" d="M210 210 C338 145 540 145 692 210"/>
  <path class="d" d="M250 188 L250 430 M420 150 L420 450 M600 188 L600 430"/>
  <path class="q" d="M250 188 L214 145 M250 188 L288 146 M420 150 L382 108 M420 150 L458 108 M600 188 L562 146 M600 188 L638 146"/>
  <path class="q" d="M230 432 L650 432 M230 432 L330 485 M330 485 L720 485 M650 432 L720 485"/>
  <text class="small" x="246" y="520">relative canonical scroll and syzygy bundles</text>

</svg>
