<svg xmlns="http://www.w3.org/2000/svg" viewBox="0 0 900 560" role="img" aria-hidden="true">
<defs>
  <filter id="pencil" x="-8%" y="-8%" width="116%" height="116%">
    <feTurbulence type="fractalNoise" baseFrequency="0.018" numOctaves="2" seed="8" result="noise"/>
    <feDisplacementMap in="SourceGraphic" in2="noise" scale="1.15" xChannelSelector="R" yChannelSelector="G"/>
  </filter>
  <style>
    .line{fill:none;stroke:#263241;stroke-width:4.2;stroke-linecap:round;stroke-linejoin:round;filter:url(#pencil);opacity:.76}
    .thin{fill:none;stroke:#263241;stroke-width:2.2;stroke-linecap:round;stroke-linejoin:round;filter:url(#pencil);opacity:.55}
    .dash{fill:none;stroke:#263241;stroke-width:2.2;stroke-linecap:round;stroke-linejoin:round;stroke-dasharray:11 12;filter:url(#pencil);opacity:.45}
    .mark{fill:#263241;opacity:.78;filter:url(#pencil)}
    .accent{fill:#8b2f2f;opacity:.8;filter:url(#pencil)}
  </style>
</defs>

  
  <path class="line" d="M 165 287 C 197 158, 363 158, 404 277 C 441 369, 459 369, 496 277 C 537 158, 703 158, 735 287 C 703 406, 537 406, 496 287 C 459 201, 441 201, 404 287 C 363 406, 197 406, 165 287 Z"/>
  <path class="thin" d="M 220 284 C 280 227, 338 231, 384 280"/>
  <path class="thin" d="M 516 280 C 562 231, 620 227, 680 284"/>
  <path class="dash" d="M450 82 C430 168,430 382,450 478"/>
  <path class="thin" d="M250 122 C350 62,550 62,650 122"/>
  <path class="thin" d="M650 122 l-28 -6 m28 6 l-18 -23"/>
  <path class="thin" d="M650 438 C550 498,350 498,250 438"/>
  <path class="thin" d="M250 438 l28 6 m-28 -6 l18 23"/>
  <circle class="accent" cx="296" cy="282" r="8"/><circle class="accent" cx="388" cy="206" r="7"/>
  <circle class="accent" cx="512" cy="356" r="7"/><circle class="accent" cx="604" cy="282" r="8"/>
  <circle class="mark" cx="450" cy="178" r="4"/><circle class="mark" cx="450" cy="386" r="4"/>

</svg>
