<svg xmlns="http://www.w3.org/2000/svg" viewBox="0 0 900 560" role="img" aria-hidden="true">
<defs>
  <filter id="wobble" x="-12%" y="-12%" width="124%" height="124%">
    <feTurbulence type="fractalNoise" baseFrequency="0.055" numOctaves="3" seed="23" result="noise"/>
    <feDisplacementMap in="SourceGraphic" in2="noise" scale="2.8" xChannelSelector="R" yChannelSelector="G"/>
    <feGaussianBlur stdDeviation="0.16"/>
  </filter>
  <style>
    .heavy{fill:none;stroke:#262626;stroke-width:3.5;stroke-linecap:round;stroke-linejoin:round;opacity:.42;filter:url(#wobble)}
    .mid{fill:none;stroke:#262626;stroke-width:2.0;stroke-linecap:round;stroke-linejoin:round;opacity:.30;filter:url(#wobble)}
    .light{fill:none;stroke:#262626;stroke-width:1.2;stroke-linecap:round;stroke-linejoin:round;opacity:.18;filter:url(#wobble)}
    .dash{fill:none;stroke:#262626;stroke-width:1.7;stroke-linecap:round;stroke-linejoin:round;stroke-dasharray:9 11;opacity:.26;filter:url(#wobble)}
    .shade{fill:none;stroke:#262626;stroke-width:1.0;stroke-linecap:round;opacity:.16;filter:url(#wobble)}
    .mark{fill:none;stroke:#6f3333;stroke-width:2.4;opacity:.50;filter:url(#wobble)}
  </style>
</defs>
<path class="heavy" d="M145 290 C180 130 350 125 405 252 C438 330 462 330 495 252 C550 125 720 130 755 290 C720 450 550 435 495 308 C462 230 438 230 405 308 C350 435 180 450 145 290 Z"/>
<path class="heavy" d="M145 290 C180 130 350 125 405 252 C438 330 462 330 495 252 C550 125 720 130 755 290 C720 450 550 435 495 308 C462 230 438 230 405 308 C350 435 180 450 145 290 Z" transform="translate(1.6 -1.1) rotate(.22 450 280)" opacity=".55"/>
<path class="heavy" d="M145 290 C180 130 350 125 405 252 C438 330 462 330 495 252 C550 125 720 130 755 290 C720 450 550 435 495 308 C462 230 438 230 405 308 C350 435 180 450 145 290 Z" transform="translate(-1.2 1.4) rotate(-.18 450 280)" opacity=".38"/>
<path class="mid" d="M222 285 C280 220 345 225 392 285"/>
<path class="mid" d="M222 285 C280 220 345 225 392 285" transform="translate(1.6 -1.1) rotate(.22 450 280)" opacity=".55"/>
<path class="mid" d="M222 285 C280 220 345 225 392 285" transform="translate(-1.2 1.4) rotate(-.18 450 280)" opacity=".38"/>
<path class="mid" d="M508 285 C555 225 620 220 678 285"/>
<path class="mid" d="M508 285 C555 225 620 220 678 285" transform="translate(1.6 -1.1) rotate(.22 450 280)" opacity=".55"/>
<path class="mid" d="M508 285 C555 225 620 220 678 285" transform="translate(-1.2 1.4) rotate(-.18 450 280)" opacity=".38"/>
<path class="dash" d="M450 95 C420 190 424 370 450 465"/>
<path class="dash" d="M450 95 C420 190 424 370 450 465" transform="translate(1.6 -1.1) rotate(.22 450 280)" opacity=".55"/>
<path class="dash" d="M450 95 C420 190 424 370 450 465" transform="translate(-1.2 1.4) rotate(-.18 450 280)" opacity=".38"/>
<path class="mid" d="M245 134 C340 70 560 70 656 134"/>
<path class="mid" d="M245 134 C340 70 560 70 656 134" transform="translate(1.6 -1.1) rotate(.22 450 280)" opacity=".55"/>
<path class="mid" d="M245 134 C340 70 560 70 656 134" transform="translate(-1.2 1.4) rotate(-.18 450 280)" opacity=".38"/>
<path class="mid" d="M656 134 L625 127 M656 134 L637 108"/>
<path class="mid" d="M656 134 L625 127 M656 134 L637 108" transform="translate(1.6 -1.1) rotate(.22 450 280)" opacity=".55"/>
<path class="mid" d="M656 134 L625 127 M656 134 L637 108" transform="translate(-1.2 1.4) rotate(-.18 450 280)" opacity=".38"/>
<path class="mid" d="M656 426 C560 490 340 490 245 426"/>
<path class="mid" d="M656 426 C560 490 340 490 245 426" transform="translate(1.6 -1.1) rotate(.22 450 280)" opacity=".55"/>
<path class="mid" d="M656 426 C560 490 340 490 245 426" transform="translate(-1.2 1.4) rotate(-.18 450 280)" opacity=".38"/>
<path class="mid" d="M245 426 L276 433 M245 426 L264 452"/>
<path class="mid" d="M245 426 L276 433 M245 426 L264 452" transform="translate(1.6 -1.1) rotate(.22 450 280)" opacity=".55"/>
<path class="mid" d="M245 426 L276 433 M245 426 L264 452" transform="translate(-1.2 1.4) rotate(-.18 450 280)" opacity=".38"/>
<path class="mark" d="M 287 286 C 287 280.4, 292.2 278, 295 278 C 300.6 278, 303 284.0, 303 286 C 303 291.6, 297.0 294, 295 294 C 289.4 294, 287 288.0, 287 286 Z"/>
<path class="mark" d="M 287 286 C 287 280.4, 292.2 278, 295 278 C 300.6 278, 303 284.0, 303 286 C 303 291.6, 297.0 294, 295 294 C 289.4 294, 287 288.0, 287 286 Z" transform="translate(1.6 -1.1) rotate(.22 450 280)" opacity=".55"/>
<path class="mark" d="M 287 286 C 287 280.4, 292.2 278, 295 278 C 300.6 278, 303 284.0, 303 286 C 303 291.6, 297.0 294, 295 294 C 289.4 294, 287 288.0, 287 286 Z" transform="translate(-1.2 1.4) rotate(-.18 450 280)" opacity=".38"/>
<path class="mark" d="M 375 205 C 375 200.1, 379.55 198, 382 198 C 386.9 198, 389 203.25, 389 205 C 389 209.9, 383.75 212, 382 212 C 377.1 212, 375 206.75, 375 205 Z"/>
<path class="mark" d="M 375 205 C 375 200.1, 379.55 198, 382 198 C 386.9 198, 389 203.25, 389 205 C 389 209.9, 383.75 212, 382 212 C 377.1 212, 375 206.75, 375 205 Z" transform="translate(1.6 -1.1) rotate(.22 450 280)" opacity=".55"/>
<path class="mark" d="M 375 205 C 375 200.1, 379.55 198, 382 198 C 386.9 198, 389 203.25, 389 205 C 389 209.9, 383.75 212, 382 212 C 377.1 212, 375 206.75, 375 205 Z" transform="translate(-1.2 1.4) rotate(-.18 450 280)" opacity=".38"/>
<path class="mark" d="M 511 355 C 511 350.1, 515.55 348, 518 348 C 522.9 348, 525 353.25, 525 355 C 525 359.9, 519.75 362, 518 362 C 513.1 362, 511 356.75, 511 355 Z"/>
<path class="mark" d="M 511 355 C 511 350.1, 515.55 348, 518 348 C 522.9 348, 525 353.25, 525 355 C 525 359.9, 519.75 362, 518 362 C 513.1 362, 511 356.75, 511 355 Z" transform="translate(1.6 -1.1) rotate(.22 450 280)" opacity=".55"/>
<path class="mark" d="M 511 355 C 511 350.1, 515.55 348, 518 348 C 522.9 348, 525 353.25, 525 355 C 525 359.9, 519.75 362, 518 362 C 513.1 362, 511 356.75, 511 355 Z" transform="translate(-1.2 1.4) rotate(-.18 450 280)" opacity=".38"/>
<path class="mark" d="M 598 286 C 598 280.4, 603.2 278, 606 278 C 611.6 278, 614 284.0, 614 286 C 614 291.6, 608.0 294, 606 294 C 600.4 294, 598 288.0, 598 286 Z"/>
<path class="mark" d="M 598 286 C 598 280.4, 603.2 278, 606 278 C 611.6 278, 614 284.0, 614 286 C 614 291.6, 608.0 294, 606 294 C 600.4 294, 598 288.0, 598 286 Z" transform="translate(1.6 -1.1) rotate(.22 450 280)" opacity=".55"/>
<path class="mark" d="M 598 286 C 598 280.4, 603.2 278, 606 278 C 611.6 278, 614 284.0, 614 286 C 614 291.6, 608.0 294, 606 294 C 600.4 294, 598 288.0, 598 286 Z" transform="translate(-1.2 1.4) rotate(-.18 450 280)" opacity=".38"/>
<path class="shade" d="M205 340.0 C245.0 328.0,293.0 352.0,365 340.0"/>
<path class="shade" d="M205 349.2 C245.0 337.2,293.0 361.2,365 349.2"/>
<path class="shade" d="M205 358.3 C245.0 346.3,293.0 370.3,365 358.3"/>
<path class="shade" d="M205 367.5 C245.0 355.5,293.0 379.5,365 367.5"/>
<path class="shade" d="M205 376.7 C245.0 364.7,293.0 388.7,365 376.7"/>
<path class="shade" d="M205 385.8 C245.0 373.8,293.0 397.8,365 385.8"/>
<path class="shade" d="M205 395.0 C245.0 383.0,293.0 407.0,365 395.0"/>
<path class="shade" d="M540 180.0 C578.75 168.0,625.25 192.0,695 180.0"/>
<path class="shade" d="M540 189.2 C578.75 177.2,625.25 201.2,695 189.2"/>
<path class="shade" d="M540 198.3 C578.75 186.3,625.25 210.3,695 198.3"/>
<path class="shade" d="M540 207.5 C578.75 195.5,625.25 219.5,695 207.5"/>
<path class="shade" d="M540 216.7 C578.75 204.7,625.25 228.7,695 216.7"/>
<path class="shade" d="M540 225.8 C578.75 213.8,625.25 237.8,695 225.8"/>
<path class="shade" d="M540 235.0 C578.75 223.0,625.25 247.0,695 235.0"/>

</svg>
