<svg xmlns="http://www.w3.org/2000/svg" viewBox="0 0 900 560" role="img" aria-hidden="true">
<defs>
  <filter id="rough" x="-10%" y="-10%" width="120%" height="120%">
    <feTurbulence type="fractalNoise" baseFrequency="0.035" numOctaves="2" seed="17" result="noise"/>
    <feDisplacementMap in="SourceGraphic" in2="noise" scale="1.35" xChannelSelector="R" yChannelSelector="G"/>
  </filter>
  <style>
    .p{fill:none;stroke:#20242b;stroke-width:4.1;stroke-linecap:round;stroke-linejoin:round;filter:url(#rough);opacity:.74}
    .q{fill:none;stroke:#20242b;stroke-width:2.2;stroke-linecap:round;stroke-linejoin:round;filter:url(#rough);opacity:.48}
    .r{fill:none;stroke:#20242b;stroke-width:1.45;stroke-linecap:round;stroke-linejoin:round;filter:url(#rough);opacity:.30}
    .d{fill:none;stroke:#20242b;stroke-width:2.3;stroke-linecap:round;stroke-linejoin:round;stroke-dasharray:10 12;filter:url(#rough);opacity:.42}
    .m{fill:#20242b;filter:url(#rough);opacity:.72}
    .a{fill:#8c2f2f;stroke:#8c2f2f;stroke-width:1.8;filter:url(#rough);opacity:.8}
    .wash{fill:#20242b;opacity:.045;filter:url(#rough)}
    .txt{font-family:EB Garamond, Georgia, serif;font-size:35px;fill:#20242b;opacity:.55;filter:url(#rough)}
    .small{font-family:EB Garamond, Georgia, serif;font-size:25px;fill:#20242b;opacity:.50;filter:url(#rough)}
  </style>
</defs>

  <path class="wash" d="M150 290 C190 115 360 145 410 255 C440 330 465 330 490 255 C540 145 710 115 750 290 C710 455 540 425 490 305 C465 240 440 240 410 305 C360 425 190 455 150 290 Z"/>
  <path class="p" d="M150 290 C190 115 360 145 410 255 C440 330 465 330 490 255 C540 145 710 115 750 290 C710 455 540 425 490 305 C465 240 440 240 410 305 C360 425 190 455 150 290 Z"/>
  <path class="q" d="M220 284 C272 224 348 224 396 284 M504 284 C552 224 628 224 680 284"/>
  <path class="d" d="M450 105 C420 195 423 367 450 458"/>
  <path class="q" d="M245 138 C330 80 565 80 655 138"/><path class="q" d="M655 138 l-32 -7 m32 7 l-20 -26"/>
  <path class="q" d="M655 425 C565 485 330 485 245 425"/><path class="q" d="M245 425 l32 7 m-32 -7 l20 26"/>
  <circle class="a" cx="294" cy="286" r="8"/><circle class="a" cx="380" cy="204" r="7"/><circle class="a" cx="520" cy="356" r="7"/><circle class="a" cx="606" cy="286" r="8"/>
  <text class="small" x="622" y="207">i</text>

</svg>
