<svg xmlns="http://www.w3.org/2000/svg" viewBox="0 0 900 560" role="img" aria-hidden="true">
<defs>
  <filter id="wobble" x="-12%" y="-12%" width="124%" height="124%">
    <feTurbulence type="fractalNoise" baseFrequency="0.055" numOctaves="3" seed="23" result="noise"/>
    <feDisplacementMap in="SourceGraphic" in2="noise" scale="2.8" xChannelSelector="R" yChannelSelector="G"/>
    <feGaussianBlur stdDeviation="0.16"/>
  </filter>
  <style>
    .heavy{fill:none;stroke:#262626;stroke-width:3.5;stroke-linecap:round;stroke-linejoin:round;opacity:.42;filter:url(#wobble)}
    .mid{fill:none;stroke:#262626;stroke-width:2.0;stroke-linecap:round;stroke-linejoin:round;opacity:.30;filter:url(#wobble)}
    .light{fill:none;stroke:#262626;stroke-width:1.2;stroke-linecap:round;stroke-linejoin:round;opacity:.18;filter:url(#wobble)}
    .dash{fill:none;stroke:#262626;stroke-width:1.7;stroke-linecap:round;stroke-linejoin:round;stroke-dasharray:9 11;opacity:.26;filter:url(#wobble)}
    .shade{fill:none;stroke:#262626;stroke-width:1.0;stroke-linecap:round;opacity:.16;filter:url(#wobble)}
    .mark{fill:none;stroke:#6f3333;stroke-width:2.4;opacity:.50;filter:url(#wobble)}
  </style>
</defs>
<path class="heavy" d="M118 385 C245 120 545 122 775 385"/>
<path class="heavy" d="M118 385 C245 120 545 122 775 385" transform="translate(1.6 -1.1) rotate(.22 450 280)" opacity=".55"/>
<path class="heavy" d="M118 385 C245 120 545 122 775 385" transform="translate(-1.2 1.4) rotate(-.18 450 280)" opacity=".38"/>
<path class="mid" d="M165 340 L610 155"/>
<path class="mid" d="M165 340 L610 155" transform="translate(1.6 -1.1) rotate(.22 450 280)" opacity=".55"/>
<path class="mid" d="M165 340 L610 155" transform="translate(-1.2 1.4) rotate(-.18 450 280)" opacity=".38"/>
<path class="mid" d="M245 420 L710 250"/>
<path class="mid" d="M245 420 L710 250" transform="translate(1.6 -1.1) rotate(.22 450 280)" opacity=".55"/>
<path class="mid" d="M245 420 L710 250" transform="translate(-1.2 1.4) rotate(-.18 450 280)" opacity=".38"/>
<path class="mid" d="M335 465 L770 355"/>
<path class="mid" d="M335 465 L770 355" transform="translate(1.6 -1.1) rotate(.22 450 280)" opacity=".55"/>
<path class="mid" d="M335 465 L770 355" transform="translate(-1.2 1.4) rotate(-.18 450 280)" opacity=".38"/>
<path class="mark" d="M 198 260 C 198 255.1, 202.55 253, 205 253 C 209.9 253, 212 258.25, 212 260 C 212 264.9, 206.75 267, 205 267 C 200.1 267, 198 261.75, 198 260 Z"/>
<path class="mark" d="M 198 260 C 198 255.1, 202.55 253, 205 253 C 209.9 253, 212 258.25, 212 260 C 212 264.9, 206.75 267, 205 267 C 200.1 267, 198 261.75, 198 260 Z" transform="translate(1.6 -1.1) rotate(.22 450 280)" opacity=".55"/>
<path class="mark" d="M 198 260 C 198 255.1, 202.55 253, 205 253 C 209.9 253, 212 258.25, 212 260 C 212 264.9, 206.75 267, 205 267 C 200.1 267, 198 261.75, 198 260 Z" transform="translate(-1.2 1.4) rotate(-.18 450 280)" opacity=".38"/>
<path class="mark" d="M 323 180 C 323 175.1, 327.55 173, 330 173 C 334.9 173, 337 178.25, 337 180 C 337 184.9, 331.75 187, 330 187 C 325.1 187, 323 181.75, 323 180 Z"/>
<path class="mark" d="M 323 180 C 323 175.1, 327.55 173, 330 173 C 334.9 173, 337 178.25, 337 180 C 337 184.9, 331.75 187, 330 187 C 325.1 187, 323 181.75, 323 180 Z" transform="translate(1.6 -1.1) rotate(.22 450 280)" opacity=".55"/>
<path class="mark" d="M 323 180 C 323 175.1, 327.55 173, 330 173 C 334.9 173, 337 178.25, 337 180 C 337 184.9, 331.75 187, 330 187 C 325.1 187, 323 181.75, 323 180 Z" transform="translate(-1.2 1.4) rotate(-.18 450 280)" opacity=".38"/>
<path class="mark" d="M 493 180 C 493 175.1, 497.55 173, 500 173 C 504.9 173, 507 178.25, 507 180 C 507 184.9, 501.75 187, 500 187 C 495.1 187, 493 181.75, 493 180 Z"/>
<path class="mark" d="M 493 180 C 493 175.1, 497.55 173, 500 173 C 504.9 173, 507 178.25, 507 180 C 507 184.9, 501.75 187, 500 187 C 495.1 187, 493 181.75, 493 180 Z" transform="translate(1.6 -1.1) rotate(.22 450 280)" opacity=".55"/>
<path class="mark" d="M 493 180 C 493 175.1, 497.55 173, 500 173 C 504.9 173, 507 178.25, 507 180 C 507 184.9, 501.75 187, 500 187 C 495.1 187, 493 181.75, 493 180 Z" transform="translate(-1.2 1.4) rotate(-.18 450 280)" opacity=".38"/>
<path class="mark" d="M 645 260 C 645 255.1, 649.55 253, 652 253 C 656.9 253, 659 258.25, 659 260 C 659 264.9, 653.75 267, 652 267 C 647.1 267, 645 261.75, 645 260 Z"/>
<path class="mark" d="M 645 260 C 645 255.1, 649.55 253, 652 253 C 656.9 253, 659 258.25, 659 260 C 659 264.9, 653.75 267, 652 267 C 647.1 267, 645 261.75, 645 260 Z" transform="translate(1.6 -1.1) rotate(.22 450 280)" opacity=".55"/>
<path class="mark" d="M 645 260 C 645 255.1, 649.55 253, 652 253 C 656.9 253, 659 258.25, 659 260 C 659 264.9, 653.75 267, 652 267 C 647.1 267, 645 261.75, 645 260 Z" transform="translate(-1.2 1.4) rotate(-.18 450 280)" opacity=".38"/>
<path class="dash" d="M165 340 C320 460 560 460 710 250"/>
<path class="dash" d="M165 340 C320 460 560 460 710 250" transform="translate(1.6 -1.1) rotate(.22 450 280)" opacity=".55"/>
<path class="dash" d="M165 340 C320 460 560 460 710 250" transform="translate(-1.2 1.4) rotate(-.18 450 280)" opacity=".38"/>
<path class="shade" d="M190 230.0 C302.5 218.0,437.5 242.0,640 230.0"/>
<path class="shade" d="M190 244.4 C302.5 232.4,437.5 256.4,640 244.4"/>
<path class="shade" d="M190 258.9 C302.5 246.9,437.5 270.9,640 258.9"/>
<path class="shade" d="M190 273.3 C302.5 261.3,437.5 285.3,640 273.3"/>
<path class="shade" d="M190 287.8 C302.5 275.8,437.5 299.8,640 287.8"/>
<path class="shade" d="M190 302.2 C302.5 290.2,437.5 314.2,640 302.2"/>
<path class="shade" d="M190 316.7 C302.5 304.7,437.5 328.7,640 316.7"/>
<path class="shade" d="M190 331.1 C302.5 319.1,437.5 343.1,640 331.1"/>
<path class="shade" d="M190 345.6 C302.5 333.6,437.5 357.6,640 345.6"/>
<path class="shade" d="M190 360.0 C302.5 348.0,437.5 372.0,640 360.0"/>

</svg>
