<svg xmlns="http://www.w3.org/2000/svg" viewBox="0 0 900 560" role="img" aria-hidden="true">
<defs>
  <filter id="rough" x="-10%" y="-10%" width="120%" height="120%">
    <feTurbulence type="fractalNoise" baseFrequency="0.035" numOctaves="2" seed="17" result="noise"/>
    <feDisplacementMap in="SourceGraphic" in2="noise" scale="1.35" xChannelSelector="R" yChannelSelector="G"/>
  </filter>
  <style>
    .p{fill:none;stroke:#20242b;stroke-width:4.1;stroke-linecap:round;stroke-linejoin:round;filter:url(#rough);opacity:.74}
    .q{fill:none;stroke:#20242b;stroke-width:2.2;stroke-linecap:round;stroke-linejoin:round;filter:url(#rough);opacity:.48}
    .r{fill:none;stroke:#20242b;stroke-width:1.45;stroke-linecap:round;stroke-linejoin:round;filter:url(#rough);opacity:.30}
    .d{fill:none;stroke:#20242b;stroke-width:2.3;stroke-linecap:round;stroke-linejoin:round;stroke-dasharray:10 12;filter:url(#rough);opacity:.42}
    .m{fill:#20242b;filter:url(#rough);opacity:.72}
    .a{fill:#8c2f2f;stroke:#8c2f2f;stroke-width:1.8;filter:url(#rough);opacity:.8}
    .wash{fill:#20242b;opacity:.045;filter:url(#rough)}
    .txt{font-family:EB Garamond, Georgia, serif;font-size:35px;fill:#20242b;opacity:.55;filter:url(#rough)}
    .small{font-family:EB Garamond, Georgia, serif;font-size:25px;fill:#20242b;opacity:.50;filter:url(#rough)}
  </style>
</defs>

  <path class="p" d="M202 394 L330 168 L625 145 L758 330 L562 450 Z"/>
  <path class="q" d="M330 168 L562 450 M625 145 L202 394 M758 330 L330 168"/>
  <circle class="m" cx="202" cy="394" r="8"/><circle class="m" cx="330" cy="168" r="8"/><circle class="m" cx="625" cy="145" r="8"/><circle class="m" cx="758" cy="330" r="8"/><circle class="m" cx="562" cy="450" r="8"/>
  <path class="d" d="M178 252 C338 72 615 82 760 220 M245 455 C395 525 635 500 760 370"/>
  <path class="q" d="M420 302 C475 242 545 240 605 302"/><text class="small" x="365" y="105">matroid polytope orbit class</text>

</svg>
