<svg xmlns="http://www.w3.org/2000/svg" viewBox="0 0 900 560" role="img" aria-hidden="true">
<defs>
  <filter id="pencil" x="-8%" y="-8%" width="116%" height="116%">
    <feTurbulence type="fractalNoise" baseFrequency="0.018" numOctaves="2" seed="8" result="noise"/>
    <feDisplacementMap in="SourceGraphic" in2="noise" scale="1.15" xChannelSelector="R" yChannelSelector="G"/>
  </filter>
  <style>
    .line{fill:none;stroke:#263241;stroke-width:4.2;stroke-linecap:round;stroke-linejoin:round;filter:url(#pencil);opacity:.76}
    .thin{fill:none;stroke:#263241;stroke-width:2.2;stroke-linecap:round;stroke-linejoin:round;filter:url(#pencil);opacity:.55}
    .dash{fill:none;stroke:#263241;stroke-width:2.2;stroke-linecap:round;stroke-linejoin:round;stroke-dasharray:11 12;filter:url(#pencil);opacity:.45}
    .mark{fill:#263241;opacity:.78;filter:url(#pencil)}
    .accent{fill:#8b2f2f;opacity:.8;filter:url(#pencil)}
  </style>
</defs>

  <path class="line" d="M145 300 C220 155,365 155,440 300 C365 445,220 445,145 300 Z"/>
  <path class="thin" d="M190 300 C245 220,338 220,392 300 C338 380,245 380,190 300 Z"/>
  <path class="line" d="M520 170 C620 125,735 155,780 250 C820 340,750 430,642 420 C548 410,500 330,530 250"/>
  <path class="thin" d="M520 245 C602 210,710 220,760 286"/><path class="thin" d="M524 336 C620 372,720 352,782 285"/>
  <path class="dash" d="M420 300 C475 250,500 232,548 220 M420 300 C475 345,525 385,620 410"/>
  <circle class="mark" cx="205" cy="300" r="5"/><circle class="mark" cx="332" cy="300" r="5"/><circle class="mark" cx="575" cy="218" r="5"/><circle class="mark" cx="704" cy="384" r="5"/>

</svg>
