<svg xmlns="http://www.w3.org/2000/svg" viewBox="0 0 900 560" role="img" aria-hidden="true">
<defs>
  <filter id="wobble" x="-12%" y="-12%" width="124%" height="124%">
    <feTurbulence type="fractalNoise" baseFrequency="0.055" numOctaves="3" seed="23" result="noise"/>
    <feDisplacementMap in="SourceGraphic" in2="noise" scale="2.8" xChannelSelector="R" yChannelSelector="G"/>
    <feGaussianBlur stdDeviation="0.16"/>
  </filter>
  <style>
    .heavy{fill:none;stroke:#262626;stroke-width:3.5;stroke-linecap:round;stroke-linejoin:round;opacity:.42;filter:url(#wobble)}
    .mid{fill:none;stroke:#262626;stroke-width:2.0;stroke-linecap:round;stroke-linejoin:round;opacity:.30;filter:url(#wobble)}
    .light{fill:none;stroke:#262626;stroke-width:1.2;stroke-linecap:round;stroke-linejoin:round;opacity:.18;filter:url(#wobble)}
    .dash{fill:none;stroke:#262626;stroke-width:1.7;stroke-linecap:round;stroke-linejoin:round;stroke-dasharray:9 11;opacity:.26;filter:url(#wobble)}
    .shade{fill:none;stroke:#262626;stroke-width:1.0;stroke-linecap:round;opacity:.16;filter:url(#wobble)}
    .mark{fill:none;stroke:#6f3333;stroke-width:2.4;opacity:.50;filter:url(#wobble)}
  </style>
</defs>
<path class="heavy" d="M170 410 C230 165 490 92 710 205 C735 335 625 438 380 438 C285 438 205 425 170 410 Z"/>
<path class="heavy" d="M170 410 C230 165 490 92 710 205 C735 335 625 438 380 438 C285 438 205 425 170 410 Z" transform="translate(1.6 -1.1) rotate(.22 450 280)" opacity=".55"/>
<path class="heavy" d="M170 410 C230 165 490 92 710 205 C735 335 625 438 380 438 C285 438 205 425 170 410 Z" transform="translate(-1.2 1.4) rotate(-.18 450 280)" opacity=".38"/>
<path class="mid" d="M230 360 C365 260 520 232 685 260"/>
<path class="mid" d="M230 360 C365 260 520 232 685 260" transform="translate(1.6 -1.1) rotate(.22 450 280)" opacity=".55"/>
<path class="mid" d="M230 360 C365 260 520 232 685 260" transform="translate(-1.2 1.4) rotate(-.18 450 280)" opacity=".38"/>
<path class="mid" d="M245 300 C365 198 525 160 668 188"/>
<path class="mid" d="M245 300 C365 198 525 160 668 188" transform="translate(1.6 -1.1) rotate(.22 450 280)" opacity=".55"/>
<path class="mid" d="M245 300 C365 198 525 160 668 188" transform="translate(-1.2 1.4) rotate(-.18 450 280)" opacity=".38"/>
<path class="mid" d="M322 430 C363 305 430 190 502 122"/>
<path class="mid" d="M322 430 C363 305 430 190 502 122" transform="translate(1.6 -1.1) rotate(.22 450 280)" opacity=".55"/>
<path class="mid" d="M322 430 C363 305 430 190 502 122" transform="translate(-1.2 1.4) rotate(-.18 450 280)" opacity=".38"/>
<path class="mid" d="M470 438 C492 310 545 205 625 170"/>
<path class="mid" d="M470 438 C492 310 545 205 625 170" transform="translate(1.6 -1.1) rotate(.22 450 280)" opacity=".55"/>
<path class="mid" d="M470 438 C492 310 545 205 625 170" transform="translate(-1.2 1.4) rotate(-.18 450 280)" opacity=".38"/>
<path class="mark" d="M 283 350 C 283 345.1, 287.55 343, 290 343 C 294.9 343, 297 348.25, 297 350 C 297 354.9, 291.75 357, 290 357 C 285.1 357, 283 351.75, 283 350 Z"/>
<path class="mark" d="M 283 350 C 283 345.1, 287.55 343, 290 343 C 294.9 343, 297 348.25, 297 350 C 297 354.9, 291.75 357, 290 357 C 285.1 357, 283 351.75, 283 350 Z" transform="translate(1.6 -1.1) rotate(.22 450 280)" opacity=".55"/>
<path class="mark" d="M 283 350 C 283 345.1, 287.55 343, 290 343 C 294.9 343, 297 348.25, 297 350 C 297 354.9, 291.75 357, 290 357 C 285.1 357, 283 351.75, 283 350 Z" transform="translate(-1.2 1.4) rotate(-.18 450 280)" opacity=".38"/>
<path class="mark" d="M 353 302 C 353 297.1, 357.55 295, 360 295 C 364.9 295, 367 300.25, 367 302 C 367 306.9, 361.75 309, 360 309 C 355.1 309, 353 303.75, 353 302 Z"/>
<path class="mark" d="M 353 302 C 353 297.1, 357.55 295, 360 295 C 364.9 295, 367 300.25, 367 302 C 367 306.9, 361.75 309, 360 309 C 355.1 309, 353 303.75, 353 302 Z" transform="translate(1.6 -1.1) rotate(.22 450 280)" opacity=".55"/>
<path class="mark" d="M 353 302 C 353 297.1, 357.55 295, 360 295 C 364.9 295, 367 300.25, 367 302 C 367 306.9, 361.75 309, 360 309 C 355.1 309, 353 303.75, 353 302 Z" transform="translate(-1.2 1.4) rotate(-.18 450 280)" opacity=".38"/>
<path class="mark" d="M 448 260 C 448 255.1, 452.55 253, 455 253 C 459.9 253, 462 258.25, 462 260 C 462 264.9, 456.75 267, 455 267 C 450.1 267, 448 261.75, 448 260 Z"/>
<path class="mark" d="M 448 260 C 448 255.1, 452.55 253, 455 253 C 459.9 253, 462 258.25, 462 260 C 462 264.9, 456.75 267, 455 267 C 450.1 267, 448 261.75, 448 260 Z" transform="translate(1.6 -1.1) rotate(.22 450 280)" opacity=".55"/>
<path class="mark" d="M 448 260 C 448 255.1, 452.55 253, 455 253 C 459.9 253, 462 258.25, 462 260 C 462 264.9, 456.75 267, 455 267 C 450.1 267, 448 261.75, 448 260 Z" transform="translate(-1.2 1.4) rotate(-.18 450 280)" opacity=".38"/>
<path class="mark" d="M 541 238 C 541 233.1, 545.55 231, 548 231 C 552.9 231, 555 236.25, 555 238 C 555 242.9, 549.75 245, 548 245 C 543.1 245, 541 239.75, 541 238 Z"/>
<path class="mark" d="M 541 238 C 541 233.1, 545.55 231, 548 231 C 552.9 231, 555 236.25, 555 238 C 555 242.9, 549.75 245, 548 245 C 543.1 245, 541 239.75, 541 238 Z" transform="translate(1.6 -1.1) rotate(.22 450 280)" opacity=".55"/>
<path class="mark" d="M 541 238 C 541 233.1, 545.55 231, 548 231 C 552.9 231, 555 236.25, 555 238 C 555 242.9, 549.75 245, 548 245 C 543.1 245, 541 239.75, 541 238 Z" transform="translate(-1.2 1.4) rotate(-.18 450 280)" opacity=".38"/>
<path class="mark" d="M 623 280 C 623 275.1, 627.55 273, 630 273 C 634.9 273, 637 278.25, 637 280 C 637 284.9, 631.75 287, 630 287 C 625.1 287, 623 281.75, 623 280 Z"/>
<path class="mark" d="M 623 280 C 623 275.1, 627.55 273, 630 273 C 634.9 273, 637 278.25, 637 280 C 637 284.9, 631.75 287, 630 287 C 625.1 287, 623 281.75, 623 280 Z" transform="translate(1.6 -1.1) rotate(.22 450 280)" opacity=".55"/>
<path class="mark" d="M 623 280 C 623 275.1, 627.55 273, 630 273 C 634.9 273, 637 278.25, 637 280 C 637 284.9, 631.75 287, 630 287 C 625.1 287, 623 281.75, 623 280 Z" transform="translate(-1.2 1.4) rotate(-.18 450 280)" opacity=".38"/>
<path class="mark" d="M 503 365 C 503 360.1, 507.55 358, 510 358 C 514.9 358, 517 363.25, 517 365 C 517 369.9, 511.75 372, 510 372 C 505.1 372, 503 366.75, 503 365 Z"/>
<path class="mark" d="M 503 365 C 503 360.1, 507.55 358, 510 358 C 514.9 358, 517 363.25, 517 365 C 517 369.9, 511.75 372, 510 372 C 505.1 372, 503 366.75, 503 365 Z" transform="translate(1.6 -1.1) rotate(.22 450 280)" opacity=".55"/>
<path class="mark" d="M 503 365 C 503 360.1, 507.55 358, 510 358 C 514.9 358, 517 363.25, 517 365 C 517 369.9, 511.75 372, 510 372 C 505.1 372, 503 366.75, 503 365 Z" transform="translate(-1.2 1.4) rotate(-.18 450 280)" opacity=".38"/>
<path class="shade" d="M255 315.0 C352.5 303.0,469.5 327.0,645 315.0"/>
<path class="shade" d="M255 322.7 C352.5 310.7,469.5 334.7,645 322.7"/>
<path class="shade" d="M255 330.5 C352.5 318.5,469.5 342.5,645 330.5"/>
<path class="shade" d="M255 338.2 C352.5 326.2,469.5 350.2,645 338.2"/>
<path class="shade" d="M255 345.9 C352.5 333.9,469.5 357.9,645 345.9"/>
<path class="shade" d="M255 353.6 C352.5 341.6,469.5 365.6,645 353.6"/>
<path class="shade" d="M255 361.4 C352.5 349.4,469.5 373.4,645 361.4"/>
<path class="shade" d="M255 369.1 C352.5 357.1,469.5 381.1,645 369.1"/>
<path class="shade" d="M255 376.8 C352.5 364.8,469.5 388.8,645 376.8"/>
<path class="shade" d="M255 384.5 C352.5 372.5,469.5 396.5,645 384.5"/>
<path class="shade" d="M255 392.3 C352.5 380.3,469.5 404.3,645 392.3"/>
<path class="shade" d="M255 400.0 C352.5 388.0,469.5 412.0,645 400.0"/>

</svg>
