<svg xmlns="http://www.w3.org/2000/svg" viewBox="0 0 900 560" role="img" aria-hidden="true">
<defs>
  <filter id="pencil" x="-8%" y="-8%" width="116%" height="116%">
    <feTurbulence type="fractalNoise" baseFrequency="0.018" numOctaves="2" seed="8" result="noise"/>
    <feDisplacementMap in="SourceGraphic" in2="noise" scale="1.15" xChannelSelector="R" yChannelSelector="G"/>
  </filter>
  <style>
    .line{fill:none;stroke:#263241;stroke-width:4.2;stroke-linecap:round;stroke-linejoin:round;filter:url(#pencil);opacity:.76}
    .thin{fill:none;stroke:#263241;stroke-width:2.2;stroke-linecap:round;stroke-linejoin:round;filter:url(#pencil);opacity:.55}
    .dash{fill:none;stroke:#263241;stroke-width:2.2;stroke-linecap:round;stroke-linejoin:round;stroke-dasharray:11 12;filter:url(#pencil);opacity:.45}
    .mark{fill:#263241;opacity:.78;filter:url(#pencil)}
    .accent{fill:#8b2f2f;opacity:.8;filter:url(#pencil)}
  </style>
</defs>

  <path class="line" d="M185 395 C230 180,450 105,690 180 C730 280,630 390,390 420 C300 432,230 420,185 395 Z"/>
  <path class="thin" d="M250 358 C330 270,500 235,665 250 M248 308 C360 205,510 170,650 188 M315 410 C360 285,430 180,505 132 M445 420 C468 300,525 205,610 160"/>
  <circle class="mark" cx="318" cy="336" r="6"/><circle class="mark" cx="432" cy="270" r="6"/><circle class="mark" cx="574" cy="244" r="6"/><circle class="mark" cx="520" cy="356" r="6"/>
  <path class="dash" d="M205 155 C310 95,522 80,705 132"/>

</svg>
