<svg xmlns="http://www.w3.org/2000/svg" viewBox="0 0 900 560" role="img" aria-hidden="true">
<defs>
  <filter id="rough" x="-10%" y="-10%" width="120%" height="120%">
    <feTurbulence type="fractalNoise" baseFrequency="0.035" numOctaves="2" seed="17" result="noise"/>
    <feDisplacementMap in="SourceGraphic" in2="noise" scale="1.35" xChannelSelector="R" yChannelSelector="G"/>
  </filter>
  <style>
    .p{fill:none;stroke:#20242b;stroke-width:4.1;stroke-linecap:round;stroke-linejoin:round;filter:url(#rough);opacity:.74}
    .q{fill:none;stroke:#20242b;stroke-width:2.2;stroke-linecap:round;stroke-linejoin:round;filter:url(#rough);opacity:.48}
    .r{fill:none;stroke:#20242b;stroke-width:1.45;stroke-linecap:round;stroke-linejoin:round;filter:url(#rough);opacity:.30}
    .d{fill:none;stroke:#20242b;stroke-width:2.3;stroke-linecap:round;stroke-linejoin:round;stroke-dasharray:10 12;filter:url(#rough);opacity:.42}
    .m{fill:#20242b;filter:url(#rough);opacity:.72}
    .a{fill:#8c2f2f;stroke:#8c2f2f;stroke-width:1.8;filter:url(#rough);opacity:.8}
    .wash{fill:#20242b;opacity:.045;filter:url(#rough)}
    .txt{font-family:EB Garamond, Georgia, serif;font-size:35px;fill:#20242b;opacity:.55;filter:url(#rough)}
    .small{font-family:EB Garamond, Georgia, serif;font-size:25px;fill:#20242b;opacity:.50;filter:url(#rough)}
  </style>
</defs>

  <path class="p" d="M190 378 C240 142 560 115 705 292 C625 470 335 475 190 378 Z"/>
  <path class="q" d="M240 348 C335 252 525 230 675 285 M298 426 C365 300 454 182 565 140 M190 378 C390 390 548 370 705 292"/>
  <path class="d" d="M140 250 L790 338 M160 315 L760 225"/>
  <circle class="a" cx="300" cy="328" r="6"/><circle class="a" cx="404" cy="262" r="6"/><circle class="a" cx="518" cy="238" r="6"/><circle class="a" cx="608" cy="320" r="6"/><circle class="a" cx="388" cy="392" r="6"/>
  <text class="small" x="145" y="118">del Pezzo surface satisfying interpolation</text>

</svg>
