<svg xmlns="http://www.w3.org/2000/svg" viewBox="0 0 900 560" role="img" aria-hidden="true">
<defs>
  <filter id="pencil" x="-8%" y="-8%" width="116%" height="116%">
    <feTurbulence type="fractalNoise" baseFrequency="0.018" numOctaves="2" seed="8" result="noise"/>
    <feDisplacementMap in="SourceGraphic" in2="noise" scale="1.15" xChannelSelector="R" yChannelSelector="G"/>
  </filter>
  <style>
    .line{fill:none;stroke:#263241;stroke-width:4.2;stroke-linecap:round;stroke-linejoin:round;filter:url(#pencil);opacity:.76}
    .thin{fill:none;stroke:#263241;stroke-width:2.2;stroke-linecap:round;stroke-linejoin:round;filter:url(#pencil);opacity:.55}
    .dash{fill:none;stroke:#263241;stroke-width:2.2;stroke-linecap:round;stroke-linejoin:round;stroke-dasharray:11 12;filter:url(#pencil);opacity:.45}
    .mark{fill:#263241;opacity:.78;filter:url(#pencil)}
    .accent{fill:#8b2f2f;opacity:.8;filter:url(#pencil)}
  </style>
</defs>

  <path class="line" d="M205 355 C250 150,560 120,690 285 C612 470,330 462,205 355 Z"/>
  <path class="thin" d="M250 345 C340 252,525 230,660 280 M300 412 C360 300,450 185,560 140 M205 355 C395 388,540 372,690 285"/>
  <circle class="mark" cx="300" cy="326" r="6"/><circle class="mark" cx="405" cy="262" r="6"/><circle class="mark" cx="516" cy="236" r="6"/><circle class="mark" cx="600" cy="318" r="6"/><circle class="mark" cx="388" cy="390" r="6"/>
  <path class="dash" d="M240 245 C390 185,540 182,702 238"/>

</svg>
