<svg xmlns="http://www.w3.org/2000/svg" viewBox="0 0 900 560" role="img" aria-hidden="true">
<defs>
  <filter id="wobble" x="-12%" y="-12%" width="124%" height="124%">
    <feTurbulence type="fractalNoise" baseFrequency="0.055" numOctaves="3" seed="23" result="noise"/>
    <feDisplacementMap in="SourceGraphic" in2="noise" scale="2.8" xChannelSelector="R" yChannelSelector="G"/>
    <feGaussianBlur stdDeviation="0.16"/>
  </filter>
  <style>
    .heavy{fill:none;stroke:#262626;stroke-width:3.5;stroke-linecap:round;stroke-linejoin:round;opacity:.42;filter:url(#wobble)}
    .mid{fill:none;stroke:#262626;stroke-width:2.0;stroke-linecap:round;stroke-linejoin:round;opacity:.30;filter:url(#wobble)}
    .light{fill:none;stroke:#262626;stroke-width:1.2;stroke-linecap:round;stroke-linejoin:round;opacity:.18;filter:url(#wobble)}
    .dash{fill:none;stroke:#262626;stroke-width:1.7;stroke-linecap:round;stroke-linejoin:round;stroke-dasharray:9 11;opacity:.26;filter:url(#wobble)}
    .shade{fill:none;stroke:#262626;stroke-width:1.0;stroke-linecap:round;opacity:.16;filter:url(#wobble)}
    .mark{fill:none;stroke:#6f3333;stroke-width:2.4;opacity:.50;filter:url(#wobble)}
  </style>
</defs>
<path class="heavy" d="M140 390 C300 285 585 285 760 390"/>
<path class="heavy" d="M140 390 C300 285 585 285 760 390" transform="translate(1.6 -1.1) rotate(.22 450 280)" opacity=".55"/>
<path class="heavy" d="M140 390 C300 285 585 285 760 390" transform="translate(-1.2 1.4) rotate(-.18 450 280)" opacity=".38"/>
<path class="dash" d="M230 200 L230 430"/>
<path class="dash" d="M230 200 L230 430" transform="translate(1.6 -1.1) rotate(.22 450 280)" opacity=".55"/>
<path class="dash" d="M230 200 L230 430" transform="translate(-1.2 1.4) rotate(-.18 450 280)" opacity=".38"/>
<path class="dash" d="M410 160 L410 450"/>
<path class="dash" d="M410 160 L410 450" transform="translate(1.6 -1.1) rotate(.22 450 280)" opacity=".55"/>
<path class="dash" d="M410 160 L410 450" transform="translate(-1.2 1.4) rotate(-.18 450 280)" opacity=".38"/>
<path class="dash" d="M590 200 L590 430"/>
<path class="dash" d="M590 200 L590 430" transform="translate(1.6 -1.1) rotate(.22 450 280)" opacity=".55"/>
<path class="dash" d="M590 200 L590 430" transform="translate(-1.2 1.4) rotate(-.18 450 280)" opacity=".38"/>
<path class="mid" d="M185 160 L300 160 M330 160 L445 160 M475 160 L590 160"/>
<path class="mid" d="M185 160 L300 160 M330 160 L445 160 M475 160 L590 160" transform="translate(1.6 -1.1) rotate(.22 450 280)" opacity=".55"/>
<path class="mid" d="M185 160 L300 160 M330 160 L445 160 M475 160 L590 160" transform="translate(-1.2 1.4) rotate(-.18 450 280)" opacity=".38"/>
<path class="mid" d="M185 238 L300 238 M330 238 L445 238 M475 238 L690 238"/>
<path class="mid" d="M185 238 L300 238 M330 238 L445 238 M475 238 L690 238" transform="translate(1.6 -1.1) rotate(.22 450 280)" opacity=".55"/>
<path class="mid" d="M185 238 L300 238 M330 238 L445 238 M475 238 L690 238" transform="translate(-1.2 1.4) rotate(-.18 450 280)" opacity=".38"/>
<path class="mid" d="M185 316 L300 316 M330 316 L445 316 M475 316 L590 316"/>
<path class="mid" d="M185 316 L300 316 M330 316 L445 316 M475 316 L590 316" transform="translate(1.6 -1.1) rotate(.22 450 280)" opacity=".55"/>
<path class="mid" d="M185 316 L300 316 M330 316 L445 316 M475 316 L590 316" transform="translate(-1.2 1.4) rotate(-.18 450 280)" opacity=".38"/>
<path class="mark" d="M 680 238 C 680 231.0, 686.5 228, 690 228 C 697.0 228, 700 235.5, 700 238 C 700 245.0, 692.5 248, 690 248 C 683.0 248, 680 240.5, 680 238 Z"/>
<path class="mark" d="M 680 238 C 680 231.0, 686.5 228, 690 228 C 697.0 228, 700 235.5, 700 238 C 700 245.0, 692.5 248, 690 248 C 683.0 248, 680 240.5, 680 238 Z" transform="translate(1.6 -1.1) rotate(.22 450 280)" opacity=".55"/>
<path class="mark" d="M 680 238 C 680 231.0, 686.5 228, 690 228 C 697.0 228, 700 235.5, 700 238 C 700 245.0, 692.5 248, 690 248 C 683.0 248, 680 240.5, 680 238 Z" transform="translate(-1.2 1.4) rotate(-.18 450 280)" opacity=".38"/>
<path class="mid" d="M105 225 C160 150 230 145 285 220"/>
<path class="mid" d="M105 225 C160 150 230 145 285 220" transform="translate(1.6 -1.1) rotate(.22 450 280)" opacity=".55"/>
<path class="mid" d="M105 225 C160 150 230 145 285 220" transform="translate(-1.2 1.4) rotate(-.18 450 280)" opacity=".38"/>
<path class="mid" d="M680 205 C735 145 805 155 820 235"/>
<path class="mid" d="M680 205 C735 145 805 155 820 235" transform="translate(1.6 -1.1) rotate(.22 450 280)" opacity=".55"/>
<path class="mid" d="M680 205 C735 145 805 155 820 235" transform="translate(-1.2 1.4) rotate(-.18 450 280)" opacity=".38"/>
<path class="shade" d="M200 200.0 C315.0 188.0,453.0 212.0,660 200.0"/>
<path class="shade" d="M200 213.3 C315.0 201.3,453.0 225.3,660 213.3"/>
<path class="shade" d="M200 226.7 C315.0 214.7,453.0 238.7,660 226.7"/>
<path class="shade" d="M200 240.0 C315.0 228.0,453.0 252.0,660 240.0"/>
<path class="shade" d="M200 253.3 C315.0 241.3,453.0 265.3,660 253.3"/>
<path class="shade" d="M200 266.7 C315.0 254.7,453.0 278.7,660 266.7"/>
<path class="shade" d="M200 280.0 C315.0 268.0,453.0 292.0,660 280.0"/>
<path class="shade" d="M200 293.3 C315.0 281.3,453.0 305.3,660 293.3"/>
<path class="shade" d="M200 306.7 C315.0 294.7,453.0 318.7,660 306.7"/>
<path class="shade" d="M200 320.0 C315.0 308.0,453.0 332.0,660 320.0"/>
<path class="shade" d="M200 333.3 C315.0 321.3,453.0 345.3,660 333.3"/>
<path class="shade" d="M200 346.7 C315.0 334.7,453.0 358.7,660 346.7"/>
<path class="shade" d="M200 360.0 C315.0 348.0,453.0 372.0,660 360.0"/>

</svg>
